<svg xmlns="http://www.w3.org/2000/svg" viewBox="0 0 640 480">
  <!-- Основной фон с закруглёнными углами -->
  <rect width="640" height="480" rx="40" ry="40" fill="#bd3d44"/>

  <!-- Белые полосы -->
  <path stroke="#fff" stroke-width="37" d="M0 55.3h640M0 129h640M0 203h640M0 277h640M0 351h640M0 425h640"/>

  <!-- Синее поле с закруглением углов -->
  <rect width="364.8" height="258.5" rx="20" ry="20" fill="#192f5d"/>

  <!-- Звёзды (маркерный паттерн) -->
  <marker id="us-a" markerHeight="30" markerWidth="30">
    <path fill="#fff" d="m14 0 9 27L0 10h28L5 27z"/>
  </marker>
  <path fill="none" marker-mid="url(#us-a)" d="m0 0 16 11h61 61 61 61 60L47 37h61 61 60 61L16 63h61 61 61 61 60L47 89h61 61 60 61L16 115h61 61 61 61 60L47 141h61 61 60 61L16 166h61 61 61 61 60L47 192h61 61 60 61L16 218h61 61 61 61 60z"/>
</svg>
