<svg version="1.1" id="Calque_1" xmlns="http://www.w3.org/2000/svg" x="0" y="0" viewBox="0 0 1920 1080" style="enable-background:new 0 0 1920 1080" xml:space="preserve"><style>.st0{fill:#003268}.st1{fill:#fff}.st2{fill:#005bce}</style><path class="st0" d="M1107.86 464.03c-38.08-.02-76.17-.02-114.24.05-2.02 0-3.2-.62-4.56-2.21-2.29-2.68-4.94-5.26-7.96-6.97-2.41-1.38-2.96-2.75-2.96-5.27.07-48.71.04-97.43.04-146.14 0-1.2.07-2.41-.04-3.59-.37-4.36-4.07-7.2-8.41-6.52-3.87.61-6.02 3.54-6.02 8.34-.02 24.74 0 49.48 0 74.22 0 24.6-.02 49.23.02 73.86.03 2.37-.41 3.72-2.82 5.04-2.96 1.57-5.56 4.07-7.79 6.63-1.47 1.69-2.65 2.67-5 2.63-7.59-.15-15.19-.04-22.79 0-3.52.02-6.26 1.66-8.16 4.55-2.24 3.33-2.34 6.96-.55 10.51 1.88 3.7 5.17 5.52 9.28 5.56 7.58.07 15.2-.06 22.77.11 1.34.05 2.8 1.07 3.94 1.97 3 2.41 5.72 5.23 8.87 7.42 1.53 1.05 2.3 1.82 2.28 3.73-.11 7.15-.07 14.31-.05 21.47 0 1.18-.02 2.41.27 3.55.83 3.39 4.18 5.65 7.61 5.32 3.77-.37 6.51-3.22 6.57-7.23.09-7.7.07-15.41 0-23.11 0-1.97.79-2.89 2.54-3.95 2.89-1.72 5.72-3.91 7.86-6.5 1.62-1.97 3.07-2.82 5.58-2.82 27.57.09 55.13.06 82.67.06 10.64 0 21.28.07 31.9-.02 6.66-.06 11.03-4.55 10.84-10.79-.2-6.09-4.64-9.9-11.69-9.9zm-124.61 11.53c0 .01 0 .02-.01.04-.01.13-.02.25-.04.38-.02.19-.05.37-.09.56-.1.55-.24 1.1-.42 1.63-.06.18-.12.36-.19.53-.08.21-.16.41-.26.62-.08.19-.16.37-.26.54-.18.36-.38.72-.6 1.05-.32.5-.68.98-1.07 1.44 0 .01 0 .01-.01.02-.27.3-.54.58-.82.86l-.45.42s0 .01-.01.01c-.2.18-.41.35-.62.51a12.816 12.816 0 0 1-3.57 1.98c-.78.28-1.58.49-2.42.62-.42.06-.84.11-1.27.13-.21 0-.42.01-.64.01-.23.01-.45 0-.68-.02-.17-.01-.34-.03-.52-.05-.37-.04-.74-.11-1.1-.2-.36-.09-.72-.2-1.07-.32a12.75 12.75 0 0 1-3.6-2.07c-.19-.15-.38-.32-.56-.48-.24-.22-.47-.44-.69-.67-.05-.05-.1-.11-.15-.16-.22-.24-.44-.49-.64-.74-.26-.31-.5-.63-.72-.96-.22-.33-.43-.66-.63-1.01a12.893 12.893 0 0 1-1.27-3.28c-.04-.19-.08-.38-.11-.57-.06-.29-.1-.59-.11-.89-.03-.3-.04-.6-.04-.9 0-.22.01-.44.01-.66.02-.4.05-.79.11-1.18.02-.14.04-.29.07-.43.01-.08.02-.15.04-.23.02-.07.04-.15.05-.23.03-.16.06-.31.1-.46.06-.25.13-.5.21-.74.16-.54.37-1.07.61-1.58.08-.18.17-.36.27-.54.12-.22.24-.44.37-.65.13-.21.26-.42.41-.63.28-.4.59-.79.92-1.16.17-.2.36-.4.56-.58a10.655 10.655 0 0 1 1.06-.93c.19-.15.39-.29.6-.43.61-.42 1.27-.78 1.96-1.08.23-.1.46-.19.7-.28.17-.06.34-.12.51-.17.17-.06.34-.11.51-.15s.35-.09.53-.13c.18-.03.35-.07.53-.1.55-.09 1.1-.15 1.67-.18.22-.01.44-.01.66-.01.16 0 .32 0 .48.01l.47.03c.31.03.62.06.92.11.27.04.54.1.81.16.26.06.53.13.79.21.25.07.51.16.75.25l.01.01c.24.09.48.18.71.28.04.02.07.03.11.06.22.1.43.2.65.32.22.11.44.24.66.37.01.01.02.01.03.02.22.14.44.29.66.44a13.145 13.145 0 0 1 .92.72c.2.17.4.36.59.55.18.17.35.35.51.53.27.29.52.59.75.91.11.16.23.32.34.48.22.32.42.66.61 1.01.25.47.48.96.66 1.47.08.19.15.38.21.58.41 1.24.62 2.57.6 3.95 0 .35-.02.69-.06 1.03zM977.13 266.06c0 2.38.18 4.77-.05 7.13-.33 3.46-2.74 5.61-5.97 5.68-3.35.08-6.09-2.12-6.28-5.68-.26-4.85-.26-9.73 0-14.58.18-3.35 2.89-5.5 6.12-5.5 3.24 0 5.81 2.14 6.15 5.5.24 2.46.05 4.97.05 7.46l-.02-.01zM977.18 682.72c0 2.27.14 4.55-.03 6.81-.29 3.76-2.88 6.18-6.28 6.13-3.29-.05-5.91-2.38-6.08-5.97-.22-4.64-.22-9.3-.02-13.95.16-3.57 2.77-5.88 6.09-5.93 3.45-.04 6.03 2.35 6.3 6.08.17 2.26.03 4.54.03 6.82l-.01.01zM1192.26 474.54c-.1 3.29-2.6 5.76-6.06 5.98-.21.02-.44.01-.65.01h-6.5v-.01c-2.27 0-4.55.1-6.82-.03-3.29-.18-5.7-2.67-5.86-5.83-.16-3.24 2.25-6.29 5.58-6.45 4.86-.21 9.75-.2 14.61-.01 3.38.14 5.8 3.07 5.7 6.34zM775.52 474.41c-.01 3.28-2.51 5.85-5.93 6.11-.21.01-.44.01-.65.01-1.44.01-2.88.01-4.33.01-.72-.01-1.45-.01-2.17-.01-1.8-.01-3.61.05-5.42.02-.46-.01-.93-.03-1.4-.05-3.44-.17-5.94-2.75-5.99-6.04-.05-3.27 2.4-6.15 5.78-6.27 4.75-.18 9.53-.18 14.29-.01 3.37.13 5.84 2.97 5.82 6.23z"/><path class="st1" d="M958.61 474.59c0 .3.01.6.04.9-.04-.3-.05-.6-.05-.91 0-.22.01-.43.02-.65 0 .22-.01.44-.01.66zM961.78 466.1c-.33.37-.64.76-.92 1.16.28-.4.58-.79.92-1.16zM968.74 462.25c.54-.1 1.1-.16 1.67-.18-.57.03-1.12.09-1.67.18zM970.5 486.91c.22 0 .43-.01.64-.01-.22.01-.43.02-.65.02-.23 0-.45-.01-.67-.03.23.02.45.03.68.02zM971.07 462.05c.16 0 .32.01.48.02-.16-.01-.32-.01-.48-.01-.22 0-.44 0-.66.01.22-.02.44-.02.66-.02zM979.48 483.23c.28-.28.55-.56.82-.86-.39.46-.81.89-1.27 1.28l.45-.42zM980.31 482.35c.39-.46.75-.94 1.07-1.44-.32.51-.67.99-1.07 1.44z"/><g><path class="st2" d="M938.51 758.43c-34.37-2.96-66.64-13.09-97.29-28.53-49.17-24.78-88.16-60.95-116.45-107.95-25.2-41.88-38.29-87.64-39.36-136.77-.09-3.85-.09-7.71 0-11.52.09-7.29.48-14.49 1.12-21.63 11.91-134.4 113.67-241.26 251.03-257.66 4.31-.5 8.67-.59 14.3-.96v29.07c-46.37 3.83-89.21 17.01-126.34 44.05-69.97 50.9-108.26 116.27-110.73 196.23-.2 6.09-.18 12.24.07 18.48.42 11.65 1.55 23.58 3.44 35.79 14.1 91.8 67.32 155.37 150.6 193.47 20.65 9.46 44.33 12.65 66.88 17.32 10.14 2.1 16.07 5.85 16.59 16.44.42 9.68-3.48 15.07-13.86 14.17z"/><path class="st0" d="M1162.02 683.4c-44.03 42.88-98.06 67.32-159.42 74.45-8.29.97-17.41 2.57-19.25-9.57-1.57-10.33 4.3-17.15 16.13-19.83 19.48-4.43 39.28-7.97 58.3-14 35.17-11.17 65.04-31.76 90.27-58.19 73.17-76.55 94.83-166.82 58.98-265.97-35.85-99.21-110.67-153.99-215.54-167.1-1.7-.21-3.41-.45-6.61-.87v-29.03c11.2 1.26 21.95 1.57 32.31 3.75 112.32 23.39 189.63 88.88 222.52 198.65 32.9 109.93 4.63 207.56-77.69 287.71z"/></g><g><path class="st0" d="M325.24 804.05c-1.87-3.14-4.47-5.6-7.78-7.36s-7.05-2.65-11.22-2.65h-25.68v65.84h10.4v-24.52h15.28c4.17 0 7.91-.88 11.22-2.65 3.31-1.76 5.91-4.21 7.78-7.36 1.87-3.14 2.8-6.69 2.8-10.65 0-3.95-.93-7.5-2.8-10.65zm-9.04 16.1c-.97 1.61-2.33 2.87-4.08 3.78-1.74.9-3.71 1.35-5.88 1.35h-15.28v-21.11h15.28c2.2 0 4.17.45 5.91 1.35 1.73.91 3.08 2.16 4.05 3.75.96 1.6 1.45 3.41 1.45 5.43 0 2.03-.49 3.84-1.45 5.45zM335.68 791.65v68.23h10.03v-68.23h-10.03zM393.83 817.07c-3.19-3.33-7.91-4.99-14.17-4.99-2.18 0-4.48.26-6.92.78s-4.74 1.26-6.9 2.21c-2.17.95-3.88 2.05-5.13 3.31l1.61 3.08c.46.86 1.12 1.54 2 2.03.87.49 1.82.74 2.83.74.92 0 1.76-.17 2.53-.51 1.68-.77 3.2-1.29 4.53-1.56 1.33-.28 2.89-.42 4.67-.42 3.37 0 5.83.93 7.38 2.78 1.55 1.86 2.34 4.84 2.37 8.95-1.9-.55-4.08-.98-6.53-1.29-2.45-.3-4.45-.46-5.98-.46-6.23 0-10.87 1.31-13.94 3.92-3.07 2.6-4.6 6.25-4.6 10.94 0 2.58.71 4.96 2.14 7.14 1.42 2.17 3.33 3.89 5.73 5.15 2.39 1.26 4.96 1.88 7.72 1.88 5.53 0 10.68-2.28 15.46-6.85v.41c0 1.72.39 3.09 1.18 4.1.78 1.01 2 1.52 3.65 1.52h5.16v-28.07c0-6.53-1.6-11.46-4.79-14.79zm-5.2 29.1c-2.27 1.63-4.5 2.95-6.69 3.98a15.994 15.994 0 0 1-6.88 1.54c-2.42 0-4.35-.51-5.8-1.54-1.44-1.03-2.16-2.48-2.16-4.35 0-2.45.86-4.15 2.58-5.1 1.72-.95 4.37-1.43 7.96-1.43 3.95 0 7.62.46 10.99 1.38v5.52zM449.73 817.3c-2.82-3.51-6.93-5.27-12.33-5.27-2.79 0-5.41.52-7.87 1.55a22.575 22.575 0 0 0-6.58 4.2V817c0-1.25-.23-2.26-.71-3.01s-1.36-1.13-2.65-1.13h-6.67v47.02h10.03V827.4c1.84-1.72 3.82-3.08 5.94-4.09 2.11-1.02 4.17-1.52 6.16-1.52 2.92 0 5.12.92 6.63 2.76 1.5 1.84 2.25 4.74 2.25 8.69v26.64h10.03v-27.74c0-6.38-1.41-11.33-4.23-14.84zM527.99 791.65v25.67c-1.63-1.56-3.48-2.8-5.55-3.72s-4.27-1.38-6.6-1.38c-4.42 0-8.37 1.04-11.85 3.13-3.48 2.08-6.2 4.97-8.16 8.67-1.97 3.69-2.95 7.87-2.95 12.54 0 4.66.91 8.83 2.72 12.51s4.31 6.55 7.52 8.63c3.2 2.07 6.85 3.1 10.93 3.1 2.82 0 5.39-.52 7.72-1.56 2.33-1.05 4.41-2.47 6.22-4.28v.55c0 2.91 1.19 4.37 3.58 4.37h6.44v-68.23h-10.02zm0 52.59c-1.51 1.93-3.2 3.5-5.09 4.69-1.88 1.2-4.1 1.8-6.65 1.8-2.57 0-4.87-.61-6.9-1.82-2.02-1.21-3.61-2.9-4.76-5.06-1.15-2.16-1.72-4.61-1.72-7.34 0-2.76.58-5.24 1.74-7.43 1.17-2.19 2.79-3.9 4.86-5.13 2.07-1.23 4.39-1.84 6.97-1.84 1.71 0 3.36.3 4.92.9 1.56.59 2.93 1.33 4.1 2.2 1.16.88 2 1.73 2.53 2.56v16.47zM560.17 794.44c-.23-.33-.55-.55-.95-.67l-3.26-.83c-2.06 2.24-3.76 4.56-5.11 6.95-1.35 2.39-2.02 5.04-2.02 7.96 0 2.02.07 3.69.23 5.01.15 1.32.38 2.84.69 4.56.09.27.15.53.18.78.03.24.06.44.09.6l8.83-1.57c-.61-2.05-1.07-3.82-1.38-5.31-.3-1.49-.46-2.97-.46-4.44 0-1.66.23-3.19.69-4.6.47-1.41 1.06-2.9 1.8-4.46.27-.62.51-1.19.71-1.73.2-.54.3-.94.3-1.22 0-.37-.11-.71-.34-1.03zM613.44 823.88c-2.1-3.7-5.01-6.59-8.72-8.67-3.71-2.09-7.91-3.13-12.6-3.13-4.7 0-8.9 1.04-12.63 3.13-3.73 2.08-6.63 4.97-8.72 8.67-2.09 3.7-3.13 7.88-3.13 12.54s1.05 8.83 3.15 12.51c2.1 3.68 5.01 6.57 8.72 8.65 3.71 2.09 7.91 3.13 12.61 3.13 4.69 0 8.89-1.04 12.6-3.13 3.71-2.08 6.62-4.97 8.72-8.65s3.15-7.85 3.15-12.51-1.05-8.84-3.15-12.54zm-8.69 19.97c-1.25 2.19-2.97 3.9-5.18 5.13-2.21 1.22-4.69 1.84-7.45 1.84s-5.25-.62-7.46-1.87c-2.2-1.24-3.93-2.95-5.17-5.15-1.24-2.19-1.86-4.65-1.86-7.38 0-2.76.62-5.24 1.86-7.43 1.24-2.2 2.97-3.91 5.17-5.13 2.21-1.23 4.7-1.84 7.46-1.84s5.24.61 7.45 1.84c2.21 1.22 3.93 2.93 5.18 5.13 1.24 2.19 1.86 4.67 1.86 7.43s-.62 5.24-1.86 7.43zM654.11 812.45c-1.06-.28-2.43-.42-4.12-.42-2.6 0-4.99.64-7.15 1.91-2.16 1.28-4.04 3.02-5.64 5.23v-1.52c0-1.38-.33-2.53-1.01-3.43-.67-.91-1.81-1.36-3.4-1.36h-5.57v47.02h9.98v-30.5c1.26-2.27 2.83-4.08 4.72-5.43 1.89-1.35 3.96-2.03 6.23-2.03 1.02 0 1.95.08 2.81.24.49.06.84.09 1.06.09 1.22 0 2.28-.35 3.17-1.06.89-.71 1.46-1.67 1.7-2.9l1.02-4.55c-1.48-.59-2.74-1.02-3.8-1.29zM707.36 813.14c-1.38-.28-3.17-.42-5.38-.42-3.77 0-7.18.39-10.21 1.15-2.76-1.16-5.72-1.74-8.88-1.74-3.59 0-6.86.79-9.82 2.37s-5.3 3.73-7 6.46c-1.7 2.73-2.55 5.74-2.55 9.02 0 1.96.31 3.85.94 5.66.63 1.81 1.53 3.46 2.69 4.96-1.41 1.14-2.56 2.46-3.45 3.96s-1.33 3.07-1.33 4.69c0 2.4.59 4.46 1.77 6.19 1.18 1.73 2.85 3.04 5.02 3.91 2.16.88 4.67 1.27 7.52 1.18l9.8-.33c2.85-.09 5.06.22 6.64.95 1.58.72 2.37 1.8 2.37 3.24 0 1.56-.89 2.78-2.69 3.66-1.79.87-4.3 1.31-7.52 1.31h-3.22c-1.07 0-2.94-.14-5.59-.42-2.65-.27-5.27-.62-7.84-1.05-.56-.1-1.08-.14-1.57-.14-1.53 0-2.74.45-3.63 1.36-.89.9-1.43 2.24-1.61 4.02l-.32 2.9c3.58.86 7.33 1.53 11.24 2.02s7.74.74 11.48.74c4.39 0 8.15-.57 11.27-1.7 3.13-1.14 5.53-2.79 7.18-4.95 1.66-2.16 2.49-4.74 2.49-7.75 0-2.7-.68-5.05-2.03-7.04s-3.3-3.53-5.86-4.6c-2.57-1.07-5.63-1.61-9.18-1.61-.77 0-1.34.02-1.71.05l-9.24.36c-1.69.07-2.99-.14-3.91-.62-.92-.47-1.38-1.26-1.38-2.37 0-.49.11-.99.34-1.52.23-.52.56-.99.99-1.42 2.98 1.53 6.23 2.3 9.75 2.3 3.59 0 6.88-.83 9.87-2.49 2.99-1.65 5.35-3.9 7.09-6.74 1.73-2.83 2.6-5.97 2.6-9.4 0-3.07-.8-5.88-2.4-8.42.83.03 1.58.13 2.26.32.43.06.72.09.87.09 1.41 0 2.48-.6 3.2-1.82.72-1.21 1.05-2.61.99-4.21l-.05-2.11zm-15.91 21.46c-.86 1.33-2.04 2.39-3.55 3.15-1.5.77-3.16 1.15-4.97 1.15-1.77 0-3.41-.38-4.9-1.15-1.48-.76-2.66-1.82-3.51-3.15-.86-1.33-1.29-2.81-1.29-4.44 0-1.66.43-3.17 1.29-4.53.85-1.37 2.03-2.44 3.51-3.22 1.49-.78 3.13-1.17 4.9-1.17 1.81 0 3.47.39 4.97 1.17 1.51.78 2.69 1.85 3.55 3.22.85 1.36 1.28 2.87 1.28 4.53 0 1.63-.43 3.11-1.28 4.44zM748.59 817.07c-3.19-3.33-7.92-4.99-14.17-4.99-2.18 0-4.49.26-6.93.78s-4.74 1.26-6.9 2.21-3.87 2.05-5.13 3.31l1.61 3.08a5.01 5.01 0 0 0 2 2.03c.88.49 1.82.74 2.83.74.92 0 1.77-.17 2.53-.51 1.69-.77 3.2-1.29 4.53-1.56 1.34-.28 2.89-.42 4.67-.42 3.38 0 5.84.93 7.39 2.78 1.55 1.86 2.34 4.84 2.37 8.95-1.91-.55-4.08-.98-6.54-1.29-2.45-.3-4.44-.46-5.98-.46-6.22 0-10.87 1.31-13.94 3.92-3.06 2.6-4.6 6.25-4.6 10.94 0 2.58.72 4.96 2.14 7.14 1.43 2.17 3.34 3.89 5.73 5.15s4.97 1.88 7.73 1.88c5.52 0 10.67-2.28 15.46-6.85v.41c0 1.72.39 3.09 1.17 4.1.78 1.01 2 1.52 3.66 1.52h5.15v-28.07c0-6.53-1.59-11.46-4.78-14.79zm-5.2 29.1c-2.27 1.63-4.5 2.95-6.7 3.98a15.962 15.962 0 0 1-6.88 1.54c-2.42 0-4.35-.51-5.79-1.54-1.44-1.03-2.16-2.48-2.16-4.35 0-2.45.85-4.15 2.57-5.1 1.72-.95 4.37-1.43 7.96-1.43 3.96 0 7.62.46 11 1.38v5.52zM804.48 817.3c-2.82-3.51-6.93-5.27-12.33-5.27-2.79 0-5.41.52-7.86 1.55a22.314 22.314 0 0 0-6.58 4.2V817c0-1.25-.24-2.26-.72-3.01-.47-.75-1.35-1.13-2.64-1.13h-6.67v47.02h10.03V827.4c1.84-1.72 3.82-3.08 5.93-4.09 2.12-1.02 4.17-1.52 6.17-1.52 2.91 0 5.12.92 6.62 2.76s2.26 4.74 2.26 8.69v26.64h10.03v-27.74c0-6.38-1.41-11.33-4.24-14.84zM822.98 812.86v47.02h10.03v-47.02h-10.03zm10.83-16.74a6.776 6.776 0 0 0-2.44-2.49 6.401 6.401 0 0 0-3.33-.92c-1.23 0-2.36.31-3.41.92a6.754 6.754 0 0 0-2.46 2.49c-.6 1.04-.89 2.16-.89 3.35 0 1.2.29 2.32.89 3.36.6 1.05 1.42 1.87 2.46 2.49 1.05.61 2.18.92 3.41.92 1.19 0 2.31-.31 3.33-.92a6.776 6.776 0 0 0 2.44-2.49c.6-1.04.9-2.16.9-3.36 0-1.19-.3-2.31-.9-3.35zM872.87 836.83c-2.31-2.3-5.96-4.35-10.92-6.16-2.3-.8-3.91-1.58-4.83-2.33-.93-.75-1.39-1.66-1.39-2.73 0-1.32.43-2.33 1.29-3.02.86-.69 2.12-1.03 3.78-1.03.55 0 1.1.07 1.65.2.55.14 1.13.33 1.73.56.6.23 1.03.4 1.31.53.86.33 1.67.5 2.44.5.98 0 1.88-.24 2.71-.71.83-.48 1.44-1.13 1.84-1.96l1.75-3.45c-1.69-1.65-3.79-2.93-6.3-3.82-2.52-.89-4.99-1.33-7.41-1.33-3.01 0-5.62.56-7.84 1.68-2.23 1.12-3.94 2.7-5.13 4.74-1.2 2.04-1.8 4.41-1.8 7.11 0 2.23.37 4.14 1.11 5.72.73 1.58 2.07 3.06 4.02 4.44 1.95 1.38 4.72 2.75 8.31 4.1 2.54.98 4.37 1.95 5.49 2.92s1.68 2.05 1.68 3.24c0 1.69-.56 2.99-1.68 3.89-1.12.91-2.69 1.36-4.71 1.36-1.44 0-2.8-.23-4.07-.69-1.28-.46-2.71-1.09-4.31-1.89-.85-.43-1.79-.64-2.8-.64-.92 0-1.78.21-2.58.64-.8.43-1.42 1.03-1.88 1.8l-1.89 3.31c2.18 2.08 4.68 3.76 7.52 5.01 2.84 1.26 5.9 1.89 9.18 1.89 3.4 0 6.41-.62 9.02-1.86 2.6-1.25 4.62-2.99 6.05-5.25 1.42-2.25 2.14-4.87 2.14-7.84 0-3.65-1.16-6.63-3.48-8.93zM920.42 817.07c-3.19-3.33-7.91-4.99-14.17-4.99-2.18 0-4.49.26-6.92.78-2.44.52-4.74 1.26-6.91 2.21-2.16.95-3.87 2.05-5.13 3.31l1.61 3.08c.46.86 1.13 1.54 2.01 2.03.87.49 1.81.74 2.83.74.92 0 1.76-.17 2.53-.51 1.68-.77 3.19-1.29 4.53-1.56 1.33-.28 2.89-.42 4.67-.42 3.37 0 5.83.93 7.38 2.78 1.55 1.86 2.34 4.84 2.37 8.95-1.9-.55-4.08-.98-6.53-1.29-2.46-.3-4.45-.46-5.98-.46-6.23 0-10.88 1.31-13.94 3.92-3.07 2.6-4.6 6.25-4.6 10.94 0 2.58.71 4.96 2.14 7.14 1.42 2.17 3.33 3.89 5.72 5.15 2.4 1.26 4.97 1.88 7.73 1.88 5.52 0 10.68-2.28 15.46-6.85v.41c0 1.72.39 3.09 1.17 4.1.79 1.01 2.01 1.52 3.66 1.52h5.15v-28.07c0-6.53-1.59-11.46-4.78-14.79zm-5.2 29.1c-2.27 1.63-4.5 2.95-6.69 3.98-2.2 1.03-4.49 1.54-6.88 1.54-2.42 0-4.36-.51-5.8-1.54-1.44-1.03-2.16-2.48-2.16-4.35 0-2.45.86-4.15 2.58-5.1 1.71-.95 4.37-1.43 7.95-1.43 3.96 0 7.63.46 11 1.38v5.52zM969.78 850.96c-.27-.71-.73-1.25-1.35-1.61-.63-.37-1.36-.56-2.19-.56-.92 0-1.79.2-2.62.6-.92.49-1.78.88-2.58 1.15-.8.28-1.62.42-2.48.42-2.09 0-3.74-.67-4.97-2.01-1.23-1.33-1.84-3.24-1.84-5.72V822.2H965v-9.34h-13.25v-16.38h-6.12c-1.23 0-2.15.4-2.78 1.18-.63.78-.98 1.75-1.04 2.92l-.18 12.28h-4.97c-.83 0-1.58.28-2.26.83-.67.55-1.01 1.35-1.01 2.39v6.12h8.24v23.33c0 3.13.6 5.83 1.82 8.12 1.21 2.28 2.91 4.03 5.1 5.24 2.19 1.21 4.73 1.82 7.62 1.82 2.88 0 5.6-.49 8.16-1.47s4.98-2.17 7.25-3.55l-1.8-4.73zM979.77 812.86v47.02h10.03v-47.02h-10.03zm10.83-16.74a6.776 6.776 0 0 0-2.44-2.49 6.427 6.427 0 0 0-3.33-.92c-1.23 0-2.36.31-3.41.92a6.754 6.754 0 0 0-2.46 2.49c-.6 1.04-.9 2.16-.9 3.35 0 1.2.3 2.32.9 3.36.6 1.05 1.42 1.87 2.46 2.49 1.05.61 2.18.92 3.41.92 1.19 0 2.3-.31 3.33-.92a6.776 6.776 0 0 0 2.44-2.49c.6-1.04.9-2.16.9-3.36 0-1.19-.3-2.31-.9-3.35zM1046.22 823.88c-2.1-3.7-5-6.59-8.71-8.67-3.72-2.09-7.92-3.13-12.61-3.13-4.69 0-8.9 1.04-12.63 3.13-3.73 2.08-6.63 4.97-8.72 8.67-2.08 3.7-3.13 7.88-3.13 12.54s1.05 8.83 3.16 12.51c2.1 3.68 5 6.57 8.71 8.65 3.71 2.09 7.92 3.13 12.61 3.13 4.69 0 8.89-1.04 12.61-3.13 3.71-2.08 6.61-4.97 8.71-8.65 2.1-3.68 3.16-7.85 3.16-12.51s-1.06-8.84-3.16-12.54zm-8.69 19.97c-1.24 2.19-2.97 3.9-5.18 5.13-2.21 1.22-4.69 1.84-7.45 1.84s-5.24-.62-7.45-1.87c-2.21-1.24-3.94-2.95-5.18-5.15-1.24-2.19-1.86-4.65-1.86-7.38 0-2.76.62-5.24 1.86-7.43 1.24-2.2 2.97-3.91 5.18-5.13 2.21-1.23 4.69-1.84 7.45-1.84s5.24.61 7.45 1.84c2.21 1.22 3.94 2.93 5.18 5.13 1.24 2.19 1.86 4.67 1.86 7.43s-.62 5.24-1.86 7.43zM1096.81 817.3c-2.82-3.51-6.93-5.27-12.33-5.27-2.79 0-5.42.52-7.87 1.55a22.444 22.444 0 0 0-6.58 4.2V817c0-1.25-.24-2.26-.71-3.01-.48-.75-1.36-1.13-2.65-1.13H1060v47.02h10.03V827.4c1.84-1.72 3.82-3.08 5.94-4.09 2.11-1.02 4.17-1.52 6.16-1.52 2.91 0 5.12.92 6.63 2.76 1.5 1.84 2.25 4.74 2.25 8.69v26.64h10.03v-27.74c0-6.38-1.41-11.33-4.23-14.84zM1175.06 791.65v25.67c-1.62-1.56-3.47-2.8-5.54-3.72s-4.27-1.38-6.6-1.38c-4.42 0-8.37 1.04-11.85 3.13-3.48 2.08-6.2 4.97-8.16 8.67-1.97 3.69-2.95 7.87-2.95 12.54 0 4.66.91 8.83 2.72 12.51 1.81 3.68 4.31 6.55 7.52 8.63 3.2 2.07 6.84 3.1 10.92 3.1 2.83 0 5.4-.52 7.73-1.56 2.33-1.05 4.4-2.47 6.21-4.28v.55c0 2.91 1.2 4.37 3.59 4.37h6.44v-68.23h-10.03zm0 52.59c-1.5 1.93-3.19 3.5-5.08 4.69-1.89 1.2-4.1 1.8-6.65 1.8-2.57 0-4.87-.61-6.9-1.82-2.02-1.21-3.61-2.9-4.76-5.06-1.15-2.16-1.73-4.61-1.73-7.34 0-2.76.59-5.24 1.75-7.43 1.17-2.19 2.79-3.9 4.86-5.13 2.07-1.23 4.39-1.84 6.97-1.84 1.71 0 3.36.3 4.92.9 1.56.59 2.93 1.33 4.09 2.2 1.17.88 2.01 1.73 2.53 2.56v16.47zM1230.41 812.86v32.48c-1.84 1.72-3.83 3.08-5.96 4.1-2.13 1.01-4.18 1.52-6.14 1.52-2.94 0-5.17-.92-6.67-2.74-1.5-1.83-2.26-4.73-2.26-8.72v-26.64h-9.98v27.74c0 6.38 1.41 11.33 4.23 14.84 2.83 3.51 6.93 5.27 12.33 5.27 2.79 0 5.42-.51 7.87-1.54s4.65-2.43 6.58-4.21v.83c0 1.25.24 2.25.71 2.99.48.73 1.36 1.1 2.65 1.1h6.62v-47.02h-9.98zM1313.4 850.96c-.27-.71-.72-1.25-1.35-1.61-.63-.37-1.36-.56-2.19-.56-.92 0-1.79.2-2.62.6-.92.49-1.78.88-2.58 1.15-.79.28-1.62.42-2.48.42-2.09 0-3.74-.67-4.97-2.01-1.23-1.33-1.84-3.24-1.84-5.72V822.2h13.25v-9.34h-13.25v-16.38h-6.12c-1.23 0-2.15.4-2.78 1.18-.63.78-.98 1.75-1.04 2.92l-.18 12.28h-4.97c-.83 0-1.58.28-2.25.83-.68.55-1.02 1.35-1.02 2.39v6.12h8.24v23.33c0 3.13.6 5.83 1.82 8.12 1.21 2.28 2.91 4.03 5.1 5.24 2.2 1.21 4.73 1.82 7.62 1.82 2.88 0 5.6-.49 8.16-1.47 2.56-.98 4.98-2.17 7.25-3.55l-1.8-4.73zM1350.28 812.45c-1.06-.28-2.43-.42-4.12-.42-2.61 0-4.99.64-7.15 1.91-2.17 1.28-4.04 3.02-5.64 5.23v-1.52c0-1.38-.34-2.53-1.01-3.43-.68-.91-1.81-1.36-3.4-1.36h-5.57v47.02h9.98v-30.5c1.26-2.27 2.83-4.08 4.72-5.43 1.88-1.35 3.96-2.03 6.23-2.03 1.01 0 1.95.08 2.81.24.49.06.84.09 1.06.09 1.22 0 2.28-.35 3.17-1.06.89-.71 1.46-1.67 1.7-2.9l1.01-4.55c-1.47-.59-2.73-1.02-3.79-1.29zM1392.21 817.07c-3.19-3.33-7.91-4.99-14.17-4.99-2.17 0-4.48.26-6.92.78s-4.74 1.26-6.9 2.21-3.87 2.05-5.13 3.31l1.61 3.08a5.01 5.01 0 0 0 2 2.03c.87.49 1.82.74 2.83.74.92 0 1.76-.17 2.53-.51 1.69-.77 3.2-1.29 4.53-1.56 1.34-.28 2.89-.42 4.67-.42 3.37 0 5.84.93 7.39 2.78 1.54 1.86 2.33 4.84 2.36 8.95-1.9-.55-4.07-.98-6.53-1.29-2.45-.3-4.45-.46-5.98-.46-6.23 0-10.87 1.31-13.94 3.92-3.07 2.6-4.6 6.25-4.6 10.94 0 2.58.71 4.96 2.14 7.14 1.43 2.17 3.34 3.89 5.73 5.15 2.39 1.26 4.97 1.88 7.73 1.88 5.52 0 10.67-2.28 15.45-6.85v.41c0 1.72.4 3.09 1.18 4.1s2 1.52 3.66 1.52h5.15v-28.07c0-6.53-1.6-11.46-4.79-14.79zm-5.2 29.1c-2.26 1.63-4.5 2.95-6.69 3.98a15.994 15.994 0 0 1-6.88 1.54c-2.42 0-4.35-.51-5.79-1.54-1.45-1.03-2.17-2.48-2.17-4.35 0-2.45.86-4.15 2.58-5.1 1.72-.95 4.37-1.43 7.96-1.43 3.96 0 7.62.46 10.99 1.38v5.52zM1445.12 812.86c-1.47 0-2.74.35-3.79 1.04-1.06.69-1.84 1.68-2.33 2.96l-11.41 28.81c-.18.55-.32 1.25-.41 2.09-.09.84-.17 1.98-.23 3.43h-.09c-.06-1.41-.14-2.55-.23-3.41-.09-.86-.25-1.56-.46-2.11l-11.37-28.81c-.49-1.28-1.27-2.27-2.34-2.96-1.08-.69-2.35-1.04-3.82-1.04h-6.44l20.24 47.02h8.93l20.24-47.02h-6.49zM1490.76 817.07c-3.19-3.33-7.91-4.99-14.17-4.99-2.18 0-4.48.26-6.92.78-2.44.52-4.74 1.26-6.9 2.21-2.17.95-3.88 2.05-5.13 3.31l1.61 3.08c.46.86 1.12 1.54 2 2.03.87.49 1.82.74 2.83.74.92 0 1.76-.17 2.53-.51 1.68-.77 3.2-1.29 4.53-1.56 1.33-.28 2.89-.42 4.67-.42 3.37 0 5.83.93 7.38 2.78 1.55 1.86 2.34 4.84 2.37 8.95-1.9-.55-4.08-.98-6.53-1.29-2.45-.3-4.45-.46-5.98-.46-6.23 0-10.87 1.31-13.94 3.92-3.07 2.6-4.6 6.25-4.6 10.94 0 2.58.71 4.96 2.14 7.14 1.42 2.17 3.33 3.89 5.73 5.15 2.39 1.26 4.96 1.88 7.72 1.88 5.52 0 10.68-2.28 15.46-6.85v.41c0 1.72.39 3.09 1.18 4.1.78 1.01 2 1.52 3.65 1.52h5.16v-28.07c0-6.53-1.6-11.46-4.79-14.79zm-5.2 29.1c-2.27 1.63-4.5 2.95-6.69 3.98a15.994 15.994 0 0 1-6.88 1.54c-2.42 0-4.36-.51-5.8-1.54-1.44-1.03-2.16-2.48-2.16-4.35 0-2.45.86-4.15 2.58-5.1 1.72-.95 4.37-1.43 7.96-1.43 3.95 0 7.62.46 10.99 1.38v5.52zM1509.85 812.86v47.02h10.03v-47.02h-10.03zm10.84-16.74a6.776 6.776 0 0 0-2.44-2.49 6.427 6.427 0 0 0-3.33-.92c-1.23 0-2.37.31-3.41.92a6.754 6.754 0 0 0-2.46 2.49c-.6 1.04-.9 2.16-.9 3.35 0 1.2.3 2.32.9 3.36.6 1.05 1.42 1.87 2.46 2.49 1.04.61 2.18.92 3.41.92 1.19 0 2.3-.31 3.33-.92a6.776 6.776 0 0 0 2.44-2.49c.6-1.04.9-2.16.9-3.36 0-1.19-.3-2.31-.9-3.35zM1534.24 791.65v68.23h10.03v-68.23h-10.03z"/></g><path class="st2" d="M620.48 351.6c-.72-46.47-16.42-83.63-47.1-111.47-31.42-28.52-73.53-42.77-126.33-42.77H289.68c-9.98 0-18.07 8.09-18.07 18.07v82.8c14.78-16.16 35.3-26.83 57.84-27.88 28.02-1.31 56.12-.7 84.18-.92.8 0 1.58.38 2.4.6l.4 63.51c-16.76 1.57-26.57 10.97-26.99 25.49-.43 14.39 9.08 23.89 27.48 27.23l.4 63.57c-25.22.16-49.7.4-74.2.4-7.3 0-14.69-.05-21.88-1.21-19.86-3.2-36.97-13-49.63-27.15v311.46c0 9.98 8.09 18.08 18.07 18.08h43.45c9.98 0 18.08-8.1 18.08-18.08V529.49c0-9.99 8.09-18.08 18.08-18.08h40.53c52.28 0 92.41-5.61 120.39-16.83 27.99-11.22 50.03-29.24 66.14-54.06 13.39-20.63 21.21-43.82 23.47-69.57.46-5.22.69-10.54.69-15.97 0-1.13-.01-2.26-.03-3.38zm-83.69-.2c-14.22.09-28.41.29-42.61.1-1.43-.01-3.22-2.13-4.18-3.71-5.51-9.04-12.77-14.53-23.58-14.25-11.44.29-22.88.19-34.61.27l-.41-64c63.78-8.71 102.92 37.04 105.39 81.59zm-121.78 19c-6.43-.07-10.54-4.08-10.89-10.11-.37-6.14 3.22-10.98 9.61-11.2 17.95-.62 35.92-.96 53.88-.86 6.81.03 10.48 4.78 10.28 11.31-.21 6.76-3.71 10.47-10.85 10.71-8.74.32-17.52.18-26.3.24v-.2c-8.57.06-17.16.23-25.73.11zm17.61 78.72-.41-63.97c10.99-.07 21.62-.7 32.19-.06 12.21.74 20.12-5.14 26.08-15.3.73-1.24 2.22-2.85 3.38-2.87 14.39-.3 28.77-.31 43.19-.4-2.61 44.46-40.31 90.56-104.43 82.6zM1649.63 193.61h-405.92c-12.49 0-22.62 10.12-22.62 22.62v25.52c0 12.49 10.13 22.62 22.62 22.62h144.46c12.49 0 22.62 10.13 22.62 22.62v440.19c0 12.49 10.13 22.62 22.62 22.62h34.36c12.5 0 22.62-10.13 22.62-22.62V286.99c0-12.49 10.13-22.62 22.62-22.62h136.62c12.49 0 22.62-10.13 22.62-22.62v-25.52c0-12.5-10.13-22.62-22.62-22.62z"/><g><path class="st2" d="M560.4 349.53c-1.41 0-2.83.29-4.51.47l.11 17.56c1.71.12 3.48.34 5.27.34 15.07.02 30.16-.19 45.24.06 13.92.22 19.38 5.01 21.47 19.27 1.25 8.54 1.73 17.24 2.01 25.87.99 30.98 17.18 50.79 46.85 55.6 9.62 1.56 19.56 1.28 29.35 1.22 6.08-.04 9.74-4.48 9.29-9.82-.42-5.1-4.33-8.12-10.16-8.33-9.15-.33-18.49.09-27.43-1.58-19.96-3.75-29.56-16.55-30.35-37.68-.39-10.14-.67-20.43-2.58-30.33-4.1-21.16-13.12-30.28-33.7-32.1-16.84-1.48-33.9-.47-50.86-.55z"/></g></svg>